<?xml version="1.0" encoding="utf-8"?>
<!-- Generator: Adobe Illustrator 19.1.0, SVG Export Plug-In . SVG Version: 6.00 Build 0)  -->
<svg version="1.1" id="Layer_1" xmlns="http://www.w3.org/2000/svg" xmlns:xlink="http://www.w3.org/1999/xlink" x="0px" y="0px"
	 viewBox="-749 335 100 100" style="enable-background:new -749 335 100 100;" xml:space="preserve">
<style type="text/css">
	.st0{enable-background:new    ;}
	.st1{fill:none;stroke:#000000;stroke-width:2;stroke-miterlimit:10;}
	.st2{fill:none;stroke:#000000;stroke-width:5;stroke-miterlimit:10;}
	.st3{fill:#CC33FF;}
	.st4{fill:#FFFF33;}
	.st5{fill:#66FF33;}
	.st6{fill:#3366FF;}
	.st7{fill:#FF3333;}
	.st8{fill:none;}
	.st9{fill:#9933CC;}
	.st10{fill:#6699FF;}
	.st11{fill:#666666;}
	.st12{fill:#FFCC66;}
	.st13{font-family:'FRINCO';}
	.st14{font-size:81px;}
	.st15{fill:#66CCCC;}
	.st16{fill:#FFFFFF;}
</style>
<text transform="matrix(1 0 0 1 -3869.7271 1016.9092)" style="font-family:'MyriadPro-Regular'; font-size:87px;">JH</text>
<text transform="matrix(1 0 0 1 -3878 1095)" style="font-family:'MyriadPro-Regular'; font-size:87px;">jh</text>
<g>
	<g>
		<path d="M-3043.8,1060.4c-1.9,14.7-1.9,29.6,0,44.3c0.4,3.2,1.1,6.4,1.5,9.6c0.6,4.8-0.7,8-5.2,10c-4.3,1.9-7.6,2.1-11.1-1.5
			c-2.5-2.5-5.8-7-3.6-10.5c2-3.3-3.2-6.3-5.2-3c-4.2,7,1.3,15.7,7.1,20c6.4,4.7,16.6,2.1,21.6-3.8c2.6-3.1,3-6.9,2.5-10.8
			c-0.7-6-1.9-12-2.4-18.1c-1-12.1-0.7-24.3,0.9-36.3C-3037.3,1056.6-3043.3,1056.6-3043.8,1060.4L-3043.8,1060.4z"/>
	</g>
</g>
<g>
	<g>
		<path d="M-3041.3,1094.6c11.4-0.7,22.7-0.3,34,1.1c3.8,0.5,3.8-5.5,0-6c-11.3-1.4-22.6-1.8-34-1.1
			C-3045.2,1088.8-3045.2,1094.8-3041.3,1094.6L-3041.3,1094.6z"/>
	</g>
</g>
<g>
	<g>
		<path d="M-3011.7,1061c0,22.4,0,44.9,0,67.3c0,3.9,6,3.9,6,0c0-22.4,0-44.9,0-67.3C-3005.7,1057.1-3011.7,1057.1-3011.7,1061
			L-3011.7,1061z"/>
	</g>
</g>
<g>
	<g>
		<path d="M-2906.9,907c-0.3,8.8,0.1,17.5,1.2,26.2c1,7.6,3.1,14.9,4.5,22.3c0.9,4.6,1.9,10.3-0.4,14.7c-2.6,4.9-12.8,6-13.4-0.9
			c-0.8-8.1,2.2-16.6,7.2-22.8c4.5-5.7,10.8-9.2,16-14.1c4.5-4.2,7.3-9.3,9.3-15.1c5.1-14.8,6.1-30.8,3.9-46.3
			c-0.3-1.9-3.2-1.1-2.9,0.8c1.7,11.9-2.2,23.7-1.6,35.6c0.6,11.3,2.9,22.6,4.4,33.8c1-0.3,1.9-0.5,2.9-0.8
			c-1.1-6.6-2.7-13.4-3.1-20.1c-0.2-3.9,0.4-8.1,3.9-10.5c2.3-1.6,6.6-2.4,9.4-2.3c7,0.4,9.4,8.9,10.5,14.6
			c1.4,6.8,1.3,13.9,1.2,20.8c0,1.9,3,1.9,3,0c0.1-11,1.1-39.5-16.2-38.3c-6.2,0.4-12.3,2.7-14.2,9.1c-1.1,3.6-0.6,7.5,0,11.1
			c0.8,5.4,1.7,10.8,2.6,16.3c0.3,1.9,3.2,1.1,2.9-0.8c-1.7-12-4.5-24.6-4.4-36.7c0.1-11,3.1-21.6,1.6-32.7c-1,0.3-1.9,0.5-2.9,0.8
			c2.3,16,1.3,33.8-5.4,48.7c-5.5,12.3-19.4,16.8-26.1,28.2c-3.5,6-10.2,24.2-0.5,28c3.3,1.3,8.9,0.7,11.8-1.4
			c4.6-3.3,4.9-10.6,4.3-15.7c-0.9-8.1-3.6-16-4.9-24.1c-1.5-9.5-1.9-19-1.6-28.6C-2903.9,905.1-2906.9,905.1-2906.9,907
			L-2906.9,907z"/>
	</g>
</g>
<g>
	<g>
		<path d="M-2906.4,892.8c-0.6,0.3-1.1,0.6-1.5,1.2c-0.4,0.6-0.2,1.3,0.2,1.8c1,1.2,3.3,0.6,3.5-0.9c0.1-0.8-0.2-1.7-1-1.8
			c-0.7-0.2-1.7,0.2-1.8,1c0,0.2,0,0.1,0.2-0.2c0.1-0.2,0.2-0.3,0.4-0.4c0.3-0.1,1.1,0.5,0.9,0.2c0.1,0.6,0.2,1.2,0.2,1.8
			c0.1-0.3-0.2,0.1-0.3,0.2c0.8-0.3,1.3-1,1-1.8C-2904.7,893.1-2905.6,892.5-2906.4,892.8L-2906.4,892.8z"/>
	</g>
</g>
<path class="st1" d="M-3125,728v61c0,0-1,18.5-18.5,18.5S-3164,787-3164,787"/>
<polygon class="st2" points="-3126,954.6 -3098,882.5 -3153,882.5 "/>
<polygon class="st2" points="-3125,846.4 -3153,918.5 -3098,918.5 "/>
<path class="st3" d="M-2787,1013.2c0,4.9,0,17.5,0,24.6c0,2.9-2,5.1-5,5.1h-21.5c-2.5,0-5.2-1.6-5.2-4.1c0.1-25-9.5-29.5-37.2-30.3
	c-35.4-1-48,10.4-45.7,23.4c3.2,18.3,33.2,22.9,39.8,29c10.3,9.7,65.6,43,67.3,51.5c2,10,7.8,46.5-76.7,49.5
	c-46.4,1.6-61.9-14.1-65.5-24.5c-1.2-3.4-6.5-25.5-2.8-25.5l26.5,0.5c2.9,0-0.7,10-0.7,12.9l0,0c0,1.3,0.4,2.5,1.3,3.4
	c3.2,3.7,13.1,11.8,37.4,10.3c31.2-2,31.5-13.7,31.5-25.7c0-37.6-85-48.5-84.5-76.8c0,0-18-41.8,45.5-54.2
	c58.9-11.5,77.2,9.3,94.2,27.1C-2787.4,1010.6-2787,1011.9-2787,1013.2z"/>
<polygon class="st3" points="-3001.1,1528.6 -2978.2,1688.2 -3093.2,1573.6 -3070.2,1505.3 "/>
<polygon class="st4" points="-2869.3,1568 -2977.1,1687.8 -2962.9,1526.1 -2895.8,1499.9 "/>
<polygon class="st5" points="-3029.9,1841.2 -2978.2,1688.5 -2927.4,1842.7 -2978.7,1893.2 "/>
<polygon class="st6" points="-3139.6,1675.1 -2978.9,1688 -3116.1,1774.9 -3177.6,1737.5 "/>
<polygon class="st7" points="-2829.9,1750.9 -2978.3,1687.9 -2820.7,1648.7 -2774.2,1703.7 "/>
<text transform="matrix(1 0 0 1 -3045.3335 2173.3335)" style="font-family:'SourceSansPro-Regular'; font-size:200px;">J</text>
<line class="st8" x1="-2966.7" y1="2110.7" x2="-2966" y2="2107"/>
<rect x="-2970" y="2101" width="57" height="15"/>
<rect x="-2914" y="2039" width="16" height="134"/>
<polygon class="st9" points="-2806,2045 -2806,1973 -2879.4,2045 "/>
<rect x="-2689" y="2105" class="st10" width="72" height="72"/>
<rect x="-2762" y="2105" class="st11" width="73" height="72"/>
<rect x="-2689" y="2177" class="st11" width="72" height="72"/>
<rect x="-2762" y="2177" class="st10" width="73" height="72"/>
<path class="st10" d="M-2833,2180c20,19.2,19.3,51.3,0,69c-18.1,16.6-47.7,15.9-65.8-2.7"/>
<g>
	<polygon class="st12" points="-4034.5,1872.9 -3936,1864.4 -4030.9,1836.6 -3932.5,1846.5 -4020.6,1801.6 -3925.8,1829.4 
		-4004.1,1769.2 -3915.9,1813.8 -3982.2,1740.4 -3903.4,1800.1 -3955.4,1716 -3888.6,1789 -3924.5,1696.9 -3872.2,1780.7 
		-3890.5,1683.6 -3854.7,1775.7 -3854.5,1676.9 -3836.6,1774.1 -3818.2,1677 -3818.6,1775.8 -3782.5,1683.8 -3801.3,1780.9 
		-3748.8,1697.1 -3785,1789.1 -3718.3,1716.2 -3770.4,1800.1 -3691.7,1740.4 -3758,1813.7 -3669.9,1768.9 -3748.2,1829.2 
		-3653.5,1801 -3741.4,1846.1 -3643.1,1835.6 -3737.8,1863.8 -3639.3,1871.7 -3737.6,1882.1 -3642.3,1908.4 -3740.8,1900.2 
		-3652.1,1943.8 -3747.4,1917.5 -3668.2,1976.7 -3757.1,1933.4 -3689.9,2006 -3769.6,1947.4 -3716.6,2030.9 -3784.3,1958.8 
		-3747.5,2050.6 -3800.7,1967.3 -3781.7,2064.3 -3818.3,1972.5 -3817.9,2071.3 -3836.6,1974.2 -3854.7,2071.4 -3854.9,1972.6 
		-3890.9,2064.6 -3872.5,1967.5 -3925.2,2051.2 -3889,1959.2 -3956.2,2031.7 -3903.8,1947.8 -3983.1,2006.9 -3916.3,1934 
		-4005,1977.7 -3926.1,1918.1 -4021.3,1944.9 -3932.8,1900.8 -4031.3,1909.6 -3936.1,1882.8 	"/>
</g>
<text transform="matrix(1 0 0 1 -749.0002 402.0503)" class="st13 st14">JH</text>
<path class="st15" d="M-3393.6,1664.9c0.2-39.3,32.7-71.9,72.2-71.7c39.2,0.1,71.2,32.4,71.7,71.3c0.5,39.5-31.8,73-71.7,73.1
	S-3393.8,1704.5-3393.6,1664.9z"/>
<text transform="matrix(1 0 0 1 -3350.1731 1688.7173)" class="st16 st14" style="font-family:'Lato-Regular';">jh</text>
<path class="st15" d="M-3358.6,2078.9c0.2-39.3,32.7-71.9,72.2-71.7c39.2,0.1,71.2,32.4,71.7,71.3c0.5,39.5-31.8,73-71.7,73.1
	S-3358.8,2118.5-3358.6,2078.9z"/>
<path class="st15" d="M-4413.6,2148.9c0.2-39.3,32.7-71.9,72.2-71.7c39.2,0.1,71.2,32.4,71.7,71.3c0.5,39.5-31.8,73-71.7,73.1
	C-4381.3,2221.7-4413.8,2188.5-4413.6,2148.9z"/>
<text transform="matrix(1 0 0 1 -4370.1729 2172.7173)" class="st16 st14" style="font-family:'Lato-Regular';">jh</text>
<path class="st15" d="M-4413.6,2148.9c0.2-39.3,32.7-71.9,72.2-71.7c39.2,0.1,71.2,32.4,71.7,71.3c0.5,39.5-31.8,73-71.7,73.1
	C-4381.3,2221.7-4413.8,2188.5-4413.6,2148.9z"/>
<text transform="matrix(1 0 0 1 -4370.1729 2172.7173)" class="st16 st14" style="font-family:'Lato-Regular';">jh</text>
<path class="st15" d="M-4413.6,2148.9c0.2-39.3,32.7-71.9,72.2-71.7c39.2,0.1,71.2,32.4,71.7,71.3c0.5,39.5-31.8,73-71.7,73.1
	C-4381.3,2221.7-4413.8,2188.5-4413.6,2148.9z"/>
<text transform="matrix(1 0 0 1 -4370.1729 2172.7173)" class="st16 st14" style="font-family:'Lato-Regular';">jh</text>
<rect x="-3863.3" y="1794.3" class="st8" width="170.7" height="152.3"/>
<text transform="matrix(1 0 0 1 -3863.3188 1916.7106)" class="st16 st13" style="font-size:144.099px;">H</text>
<text transform="matrix(1 0 0 1 -3915.4385 1897.0505)" class="st16 st13" style="font-size:115px;">J</text>
</svg>
